#!OML:ASF H:\Not Pregnant\Project 1\Capture day 1\Session 1\non-pregnant.ASF
:FULLY-SPECIFIED
:DEGREES
678
root -5.75354 16.3156 34.6824 170.374 -80.6742 -157.258
lowerback -14.0197 3.94925 3.38506
upperback -5.48456 4.5454 -1.35553
thorax 2.42853 2.10409 -2.59486
lowerneck 2.18679 -4.23471 -27.8419
upperneck 2.76253 -8.29493 35.209
head 3.28333 -4.639 17.4097
rclavicle 1.7344e-014 1.19271e-014
rhumerus -37.2394 4.35774 -93.0556
rradius 26.5011
rwrist 24.2983
rhand -9.32625 3.68809
rfingers 7.12502
rthumb 16.6324 -25.6193
lclavicle 1.7344e-014 1.19271e-014
lhumerus -40.1981 -13.7126 90.5529
lradius 31.133
lwrist 43.7497
lhand -0.253127 -9.13717
lfingers 7.12502
lthumb 25.3479 19.1982
rfemur -10.249 -6.01508 22.4259
rtibia 7.59555
rfoot -12.8494 13.4693
rtoes -10.5506
lfemur -14.5854 3.91251 -15.1663
ltibia 13.7189
lfoot -13.9796 -6.46728
ltoes -21.6769
679
root -5.75523 16.3153 34.6841 170.326 -80.6883 -157.204
lowerback -14.0524 3.98955 3.43992
upperback -5.49676 4.59138 -1.41287
thorax 2.44515 2.12573 -2.67612
lowerneck 2.12854 -4.2101 -27.7961
upperneck 2.85332 -8.26475 35.2099
head 3.30497 -4.61788 17.404
rclavicle 1.15792e-014 2.06736e-014
rhumerus -37.6022 4.67055 -93.1693
rradius 26.9411
rwrist 23.0642
rhand -9.28481 3.41916
rfingers 7.12502
rthumb 16.6723 -25.8848
lclavicle 1.15792e-014 2.06736e-014
lhumerus -40.5543 -14.7188 90.9735
lradius 31.4442
lwrist 43.6022
lhand -1.82134 -9.34895
lfingers 7.12502
lthumb 23.8447 19.1911
rfemur -10.2899 -6.03233 22.4223
rtibia 7.67636
rfoot -12.8827 13.4757
rtoes -10.5482
lfemur -14.6315 3.85243 -15.1607
ltibia 13.8028
lfoot -13.9982 -6.42642
ltoes -21.6712
680
root -5.75631 16.315 34.6858 170.229 -80.6971 -157.108
lowerback -14.0564 4.04028 3.50719
upperback -5.51455 4.65102 -1.47761
thorax 2.44334 2.15377 -2.77153
lowerneck 2.08146 -4.18643 -27.7338
upperneck 2.93917 -8.23755 35.2084
head 3.32322 -4.599 17.393
rclavicle -4.22417e-015 0
rhumerus -37.963 4.99905 -93.3175
rradius 27.4157
rwrist 21.7788
rhand -9.20306 3.09827
rfingers 7.12502
rthumb 16.751 -26.1991
lclavicle -4.22417e-015 0
lhumerus -40.9117 -15.7151 91.3575
lradius 31.8064
lwrist 43.5647
lhand -3.02251 -9.42418
lfingers 7.12502
lthumb 22.6924 19.2616
rfemur -10.3164 -6.0447 22.4306
rtibia 7.74639
rfoot -12.9123 13.4781
rtoes -10.5608
lfemur -14.675 3.75648 -15.1416
ltibia 13.9002
lfoot -14.0114 -6.34625
ltoes -21.6683
681
root -5.75682 16.3145 34.687 170.047 -80.6988 -156.938
lowerback -14.0258 4.08724 3.58638
upperback -5.53864 4.70532 -1.53519
thorax 2.41651 2.17872 -2.8693
lowerneck 2.02268 -4.15992 -27.6708
upperneck 3.03419 -8.20349 35.1945
head 3.34287 -4.5751 17.3759
rclavicle 7.11649e-014 2.54444e-014
rhumerus -38.3234 5.39081 -93.4978
rradius 27.9247
rwrist 20.506
rhand -9.0658 2.7524
rfingers 7.12502
rthumb 16.8831 -26.5337
lclavicle 7.11649e-014 2.54444e-014
lhumerus -41.2609 -16.6242 91.6549
lradius 32.2657
lwrist 43.8655
lhand -3.65256 -9.26324
lfingers 7.12502
lthumb 22.0876 19.4953
rfemur -10.3301 -6.05101 22.4593
rtibia 7.81087
rfoot -12.9458 13.4732
rtoes -10.6238
lfemur -14.7124 3.64393 -15.1025
ltibia 14.0046
lfoot -14.0204 -6.24766
ltoes -21.6571
682
root -5.75703 16.3139 34.6885 169.899 -80.7113 -156.813
lowerback -13.9487 4.13943 3.72665
upperback -5.57394 4.76241 -1.64303
thorax 2.36227 2.20364 -3.0565
lowerneck 1.96054 -4.13824 -27.5436
upperneck 3.12431 -8.17542 35.1745
head 3.36049 -4.55355 17.3394
rclavicle 6.42074e-014 2.94201e-014
rhumerus -38.6706 5.77429 -93.7622
rradius 28.4508
rwrist 19.2945
rhand -8.91881 2.41061
rfingers 7.12502
rthumb 17.0246 -26.8634
lclavicle 6.42074e-014 2.94201e-014
lhumerus -41.5718 -17.4506 91.7707
lradius 32.7873
lwrist 44.5474
lhand -3.60277 -8.94928
lfingers 7.12502
lthumb 22.1354 19.8036
rfemur -10.3308 -6.06775 22.4755
rtibia 7.87107
rfoot -12.9782 13.4667
rtoes -10.6843
lfemur -14.7401 3.50374 -15.0745
ltibia 14.1083
lfoot -14.0275 -6.12846
ltoes -21.6761
683
root -5.7572 16.3132 34.6897 169.796 -80.7335 -156.74
lowerback -13.8607 4.17259 3.82697
upperback -5.60235 4.79974 -1.72662
thorax 2.30312 2.21939 -3.19989
lowerneck 1.87173 -4.12161 -27.4265
upperneck 3.2128 -8.14219 35.1199
head 3.37962 -4.52578 17.2861
rclavicle -4.23411e-014 9.54166e-015
rhumerus -39.0093 6.29468 -94.0637
rradius 29.0137
rwrist 18.1067
rhand -8.78317 2.07017
rfingers 7.12502
rthumb 17.1552 -27.1925
lclavicle -4.23411e-014 9.54166e-015
lhumerus -41.8371 -18.1468 91.8296
lradius 33.3271
lwrist 45.2973
lhand -3.13255 -8.60357
lfingers 7.12502
lthumb 22.5867 20.0951
rfemur -10.3236 -6.09241 22.4827
rtibia 7.93475
rfoot -13.0233 13.4505
rtoes -10.7899
lfemur -14.7576 3.36911 -15.0604
ltibia 14.2035
lfoot -14.0364 -6.01802
ltoes -21.7299
684
root -5.75703 16.3126 34.6915 169.664 -80.7611 -156.638
lowerback -13.7606 4.20171 3.93198
upperback -5.6262 4.83196 -1.80273
thorax 2.24171 2.23277 -3.33961
lowerneck 1.76344 -4.11267 -27.3074
upperneck 3.28743 -8.10893 35.044
head 3.3978 -4.49558 17.22
rclavicle 6.95746e-016 -3.18055e-014
rhumerus -39.3207 6.87983 -94.3913
rradius 29.5828
rwrist 17.0159
rhand -8.67886 1.79539
rfingers 7.12502
rthumb 17.2555 -27.4585
lclavicle 6.95746e-016 -3.18055e-014
lhumerus -42.0092 -18.6978 91.7886
lradius 33.8206
lwrist 46.041
lhand -2.19314 -8.26612
lfingers 7.12502
lthumb 23.4881 20.32
rfemur -10.3261 -6.12325 22.4937
rtibia 8.01621
rfoot -13.0828 13.4252
rtoes -10.9301
lfemur -14.765 3.20792 -15.0431
ltibia 14.2759
lfoot -14.03 -5.88455
ltoes -21.8022
685
root -5.75693 16.312 34.693 169.603 -80.7816 -156.606
lowerback -13.668 4.21605 3.97152
upperback -5.63722 4.85182 -1.83486
thorax 2.18809 2.24144 -3.39793
lowerneck 1.63172 -4.10723 -27.2363
upperneck 3.34558 -8.06429 34.935
head 3.41279 -4.45669 17.1474
rclavicle 1.2921e-015 2.94201e-014
rhumerus -39.6085 7.59719 -94.7059
rradius 30.1606
rwrist 16.0045
rhand -8.58992 1.60598
rfingers 7.12502
rthumb 17.3411 -27.6404
lclavicle 1.2921e-015 2.94201e-014
lhumerus -42.1122 -19.1376 91.7437
lradius 34.2616
lwrist 46.6553
lhand -0.924431 -8.01328
lfingers 7.12502
lthumb 24.7046 20.4117
rfemur -10.3386 -6.14451 22.4971
rtibia 8.11336
rfoot -13.1549 13.3943
rtoes -11.0898
lfemur -14.7581 3.05845 -15.0356
ltibia 14.3209
lfoot -14.0163 -5.74945
ltoes -21.917
686
root -5.75679 16.3115 34.695 169.653 -80.806 -156.687
lowerback -13.58 4.22495 3.94844
upperback -5.63373 4.87169 -1.83038
thorax 2.14421 2.25177 -3.38212
lowerneck 1.48401 -4.10798 -27.2206
upperneck 3.37752 -8.01306 34.8043
head 3.42344 -4.41274 17.0756
rclavicle -2.39039e-014 -1.27222e-014
rhumerus -39.8681 8.43353 -94.995
rradius 30.738
rwrist 15.0761
rhand -8.51478 1.51032
rfingers 7.12502
rthumb 17.4135 -27.7297
lclavicle -2.39039e-014 -1.27222e-014
lhumerus -42.139 -19.4859 91.7185
lradius 34.6325
lwrist 47.0514
lhand 0.579314 -7.86908
lfingers 7.12502
lthumb 26.1451 20.3508
rfemur -10.3558 -6.16742 22.4772
rtibia 8.21951
rfoot -13.2292 13.3643
rtoes -11.2317
lfemur -14.734 2.91297 -15.0515
ltibia 14.3345
lfoot -13.9928 -5.61575
ltoes -22.0842
687
root -5.75658 16.3113 34.6963 169.826 -80.8266 -156.884
lowerback -13.5012 4.22341 3.85858
upperback -5.61758 4.88495 -1.78927
thorax 2.10971 2.26036 -3.29083
lowerneck 1.31421 -4.10951 -27.2629
upperneck 3.38408 -7.94667 34.659
head 3.42854 -4.35929 17.0099
rclavicle -1.54555e-014 7.15625e-015
rhumerus -40.082 9.35906 -95.2365
rradius 31.2824
rwrist 14.3167
rhand -8.42992 1.52851
rfingers 7.12502
rthumb 17.4951 -27.7042
lclavicle -1.54555e-014 7.15625e-015
lhumerus -42.1067 -19.7503 91.7066
lradius 34.9788
lwrist 47.3806
lhand 2.28772 -7.75799
lfingers 7.12502
lthumb 27.7797 20.2091
rfemur -10.3844 -6.18274 22.4419
rtibia 8.33283
rfoot -13.3036 13.3366
rtoes -11.355
lfemur -14.6983 2.80262 -15.0864
ltibia 14.314
lfoot -13.9597 -5.5136
ltoes -22.268
688
root -5.75638 16.3115 34.6969 170.083 -80.8402 -157.162
lowerback -13.4257 4.22154 3.73746
upperback -5.59185 4.90151 -1.73702
thorax 2.08377 2.27155 -3.16942
lowerneck 1.1343 -4.10943 -27.3349
upperneck 3.35406 -7.86528 34.5159
head 3.42239 -4.29802 16.9523
rclavicle 2.18166e-014 8.74653e-015
rhumerus -40.2414 10.3213 -95.4545
rradius 31.7799
rwrist 13.7405
rhand -8.35581 1.60958
rfingers 7.12502
rthumb 17.5665 -27.6168
lclavicle 2.18166e-014 8.74653e-015
lhumerus -42.0015 -19.9329 91.6605
lradius 35.3107
lwrist 47.7436
lhand 4.18933 -7.5821
lfingers 7.12502
lthumb 29.5964 20.0775
rfemur -10.4164 -6.18812 22.3992
rtibia 8.44341
rfoot -13.3746 13.3099
rtoes -11.4599
lfemur -14.6486 2.72415 -15.1329
ltibia 14.2599
lfoot -13.9176 -5.43752
ltoes -22.4538
689
root -5.75622 16.3118 34.6967 170.366 -80.848 -157.461
lowerback -13.3496 4.2173 3.59402
upperback -5.55925 4.91757 -1.6742
thorax 2.06185 2.28316 -3.02453
lowerneck 0.943033 -4.10723 -27.4182
upperneck 3.28938 -7.76891 34.3741
head 3.40475 -4.22869 16.8981
rclavicle 3.82164e-014 6.36111e-015
rhumerus -40.3486 11.3388 -95.6592
rradius 32.2302
rwrist 13.345
rhand -8.26836 1.72805
rfingers 7.12502
rthumb 17.6506 -27.4908
lclavicle 3.82164e-014 6.36111e-015
lhumerus -41.8739 -20.1076 91.6079
lradius 35.7183
lwrist 48.3528
lhand 6.20769 -7.20758
lfingers 7.12502
lthumb 31.5212 20.0932
rfemur -10.4429 -6.18631 22.3594
rtibia 8.5335
rfoot -13.4385 13.2792
rtoes -11.5818
lfemur -14.5911 2.68499 -15.1816
ltibia 14.1812
lfoot -13.8704 -5.40269
ltoes -22.5628
690
root -5.75616 16.3125 34.6958 170.644 -80.8515 -157.751
lowerback -13.2521 4.2295 3.51612
upperback -5.5337 4.95001 -1.67368
thorax 2.03276 2.30161 -2.98027
lowerneck 0.764443 -4.10163 -27.4238
upperneck 3.17917 -7.66722 34.2617
head 3.36885 -4.15886 16.8405
rclavicle -5.53615e-014 2.54444e-014
rhumerus -40.3801 12.2577 -95.8978
rradius 32.5922
rwrist 13.2007
rhand -8.13687 1.97216
rfingers 7.12502
rthumb 17.7771 -27.2353
lclavicle -5.53615e-014 2.54444e-014
lhumerus -41.7022 -20.2883 91.4202
lradius 36.1943
lwrist 49.3502
lhand 8.38149 -6.49341
lfingers 7.12502
lthumb 33.5897 20.3805
rfemur -10.4535 -6.17981 22.3258
rtibia 8.58581
rfoot -13.4788 13.2562
rtoes -11.6588
lfemur -14.5305 2.6695 -15.2278
ltibia 14.0883
lfoot -13.8205 -5.39182
ltoes -22.6037
